{
    "asset" : {
        "generator" : "Khronos glTF Blender I/O v1.8.19",
        "version" : "2.0"
    },
    "scene" : 0,
    "scenes" : [
        {
            "name" : "Scene",
            "nodes" : [
                0,
                1,
                2,
                3,
                4,
                5,
                6,
                7,
                8
            ]
        }
    ],
    "nodes" : [
        {
            "mesh" : 0,
            "name" : "Text",
            "scale" : [
                0.10000000149011612,
                0.10000000149011612,
                0.10000000149011612
            ]
        },
        {
            "mesh" : 1,
            "name" : "Text.001",
            "scale" : [
                0.2367989867925644,
                0.2367989867925644,
                0.2367989867925644
            ],
            "translation" : [
                0,
                0,
                0.25
            ]
        },
        {
            "mesh" : 2,
            "name" : "Text.002",
            "scale" : [
                0.08335824310779572,
                0.08335824310779572,
                0.08335824310779572
            ],
            "translation" : [
                0,
                0,
                0.539999783039093
            ]
        },
        {
            "mesh" : 3,
            "name" : "Text.003",
            "scale" : [
                0.03815796971321106,
                0.03815796971321106,
                0.03815796971321106
            ],
            "translation" : [
                0.5299997925758362,
                0,
                0.6099998950958252
            ]
        },
        {
            "mesh" : 4,
            "name" : "Circle",
            "scale" : [
                0.014999999664723873,
                0.014999999664723873,
                0.014999999664723873
            ],
            "translation" : [
                0.5099998116493225,
                0,
                0.6019999980926514
            ]
        },
        {
            "mesh" : 5,
            "name" : "Circle.001",
            "rotation" : [
                1,
                0,
                0,
                -4.371138828673793e-08
            ],
            "scale" : [
                0.014999999664723873,
                0.014999999664723873,
                0.014999999664723873
            ],
            "translation" : [
                0.009999999776482582,
                0,
                0.5950000286102295
            ]
        },
        {
            "mesh" : 6,
            "name" : "Text.004",
            "scale" : [
                0.03815796971321106,
                0.03815796971321106,
                0.03815796971321106
            ],
            "translation" : [
                0.029999999329447746,
                0,
                0.6099998950958252
            ]
        },
        {
            "mesh" : 7,
            "name" : "Text.005",
            "scale" : [
                0.10000000149011612,
                0.10000000149011612,
                0.10000000149011612
            ],
            "translation" : [
                0.4999997913837433,
                0,
                0.7200000286102295
            ]
        },
        {
            "mesh" : 8,
            "name" : "Text.006",
            "scale" : [
                0.10000000149011612,
                0.10000000149011612,
                0.10000000149011612
            ],
            "translation" : [
                0,
                0,
                0.7200000286102295
            ]
        }
    ],
    "materials" : [
        {
            "doubleSided" : true,
            "name" : "Material.006",
            "pbrMetallicRoughness" : {
                "baseColorFactor" : [
                    0.9999988079071045,
                    0.9999989867210388,
                    1,
                    1
                ],
                "metallicFactor" : 0,
                "roughnessFactor" : 0.4000000059604645
            }
        },
        {
            "doubleSided" : true,
            "name" : "Material.001",
            "pbrMetallicRoughness" : {
                "baseColorFactor" : [
                    0.9999988079071045,
                    0.9999989867210388,
                    1,
                    1
                ],
                "metallicFactor" : 0,
                "roughnessFactor" : 0.4000000059604645
            }
        },
        {
            "doubleSided" : true,
            "name" : "Material.007",
            "pbrMetallicRoughness" : {
                "baseColorFactor" : [
                    0.9999988079071045,
                    0.9999989867210388,
                    1,
                    1
                ],
                "metallicFactor" : 0,
                "roughnessFactor" : 0.4000000059604645
            }
        },
        {
            "doubleSided" : true,
            "name" : "Material.010",
            "pbrMetallicRoughness" : {
                "baseColorFactor" : [
                    0.9999988079071045,
                    0.9999989867210388,
                    1,
                    1
                ],
                "metallicFactor" : 0,
                "roughnessFactor" : 0.4000000059604645
            }
        },
        {
            "doubleSided" : true,
            "name" : "Material.002",
            "pbrMetallicRoughness" : {
                "baseColorFactor" : [
                    0.8000000715255737,
                    0.040708981454372406,
                    0.02044253796339035,
                    1
                ],
                "metallicFactor" : 0,
                "roughnessFactor" : 0.4000000059604645
            }
        },
        {
            "doubleSided" : true,
            "name" : "Material.004",
            "pbrMetallicRoughness" : {
                "baseColorFactor" : [
                    0.05230225250124931,
                    0.8000000715255737,
                    0.024534353986382484,
                    1
                ],
                "metallicFactor" : 0,
                "roughnessFactor" : 0.4000000059604645
            }
        },
        {
            "doubleSided" : true,
            "name" : "Material.011",
            "pbrMetallicRoughness" : {
                "baseColorFactor" : [
                    0.9999988079071045,
                    0.9999989867210388,
                    1,
                    1
                ],
                "metallicFactor" : 0,
                "roughnessFactor" : 0.4000000059604645
            }
        },
        {
            "doubleSided" : true,
            "name" : "Material.009",
            "pbrMetallicRoughness" : {
                "baseColorFactor" : [
                    0.9999988079071045,
                    0.9999989867210388,
                    1,
                    1
                ],
                "metallicFactor" : 0,
                "roughnessFactor" : 0.4000000059604645
            }
        },
        {
            "doubleSided" : true,
            "name" : "Material.008",
            "pbrMetallicRoughness" : {
                "baseColorFactor" : [
                    0.9999988079071045,
                    0.9999989867210388,
                    1,
                    1
                ],
                "metallicFactor" : 0,
                "roughnessFactor" : 0.4000000059604645
            }
        }
    ],
    "meshes" : [
        {
            "name" : "Text",
            "primitives" : [
                {
                    "attributes" : {
                        "POSITION" : 0,
                        "NORMAL" : 1,
                        "TEXCOORD_0" : 2
                    },
                    "indices" : 3,
                    "material" : 0
                }
            ]
        },
        {
            "name" : "Text.001",
            "primitives" : [
                {
                    "attributes" : {
                        "POSITION" : 4,
                        "NORMAL" : 5,
                        "TEXCOORD_0" : 6
                    },
                    "indices" : 7,
                    "material" : 1
                }
            ]
        },
        {
            "name" : "Text.002",
            "primitives" : [
                {
                    "attributes" : {
                        "POSITION" : 8,
                        "NORMAL" : 9,
                        "TEXCOORD_0" : 10
                    },
                    "indices" : 11,
                    "material" : 2
                }
            ]
        },
        {
            "name" : "Text.003",
            "primitives" : [
                {
                    "attributes" : {
                        "POSITION" : 12,
                        "NORMAL" : 13,
                        "TEXCOORD_0" : 14
                    },
                    "indices" : 15,
                    "material" : 3
                }
            ]
        },
        {
            "name" : "Circle.001",
            "primitives" : [
                {
                    "attributes" : {
                        "POSITION" : 16,
                        "NORMAL" : 17,
                        "TEXCOORD_0" : 18
                    },
                    "indices" : 19,
                    "material" : 4
                }
            ]
        },
        {
            "name" : "Circle.002",
            "primitives" : [
                {
                    "attributes" : {
                        "POSITION" : 20,
                        "NORMAL" : 21,
                        "TEXCOORD_0" : 22
                    },
                    "indices" : 19,
                    "material" : 5
                }
            ]
        },
        {
            "name" : "Text.004",
            "primitives" : [
                {
                    "attributes" : {
                        "POSITION" : 23,
                        "NORMAL" : 24,
                        "TEXCOORD_0" : 25
                    },
                    "indices" : 26,
                    "material" : 6
                }
            ]
        },
        {
            "name" : "Text.005",
            "primitives" : [
                {
                    "attributes" : {
                        "POSITION" : 27,
                        "NORMAL" : 28,
                        "TEXCOORD_0" : 29
                    },
                    "indices" : 30,
                    "material" : 7
                }
            ]
        },
        {
            "name" : "Text.006",
            "primitives" : [
                {
                    "attributes" : {
                        "POSITION" : 31,
                        "NORMAL" : 32,
                        "TEXCOORD_0" : 33
                    },
                    "indices" : 34,
                    "material" : 8
                }
            ]
        }
    ],
    "accessors" : [
        {
            "bufferView" : 0,
            "componentType" : 5126,
            "count" : 1429,
            "max" : [
                5.433000564575195,
                0,
                0.009000000543892384
            ],
            "min" : [
                0.017000000923871994,
                0,
                -0.6820000410079956
            ],
            "type" : "VEC3"
        },
        {
            "bufferView" : 1,
            "componentType" : 5126,
            "count" : 1429,
            "type" : "VEC3"
        },
        {
            "bufferView" : 2,
            "componentType" : 5126,
            "count" : 1429,
            "type" : "VEC2"
        },
        {
            "bufferView" : 3,
            "componentType" : 5123,
            "count" : 3126,
            "type" : "SCALAR"
        },
        {
            "bufferView" : 4,
            "componentType" : 5126,
            "count" : 1131,
            "max" : [
                4.418000221252441,
                0,
                0.11800000816583633
            ],
            "min" : [
                0.05100000277161598,
                0,
                -0.6910000443458557
            ],
            "type" : "VEC3"
        },
        {
            "bufferView" : 5,
            "componentType" : 5126,
            "count" : 1131,
            "type" : "VEC3"
        },
        {
            "bufferView" : 6,
            "componentType" : 5126,
            "count" : 1131,
            "type" : "VEC2"
        },
        {
            "bufferView" : 7,
            "componentType" : 5123,
            "count" : 2451,
            "type" : "SCALAR"
        },
        {
            "bufferView" : 8,
            "componentType" : 5126,
            "count" : 695,
            "max" : [
                4.591000556945801,
                0,
                0.009000000543892384
            ],
            "min" : [
                0.017000000923871994,
                0,
                -0.6820000410079956
            ],
            "type" : "VEC3"
        },
        {
            "bufferView" : 9,
            "componentType" : 5126,
            "count" : 695,
            "type" : "VEC3"
        },
        {
            "bufferView" : 10,
            "componentType" : 5126,
            "count" : 695,
            "type" : "VEC2"
        },
        {
            "bufferView" : 11,
            "componentType" : 5123,
            "count" : 1548,
            "type" : "SCALAR"
        },
        {
            "bufferView" : 12,
            "componentType" : 5126,
            "count" : 839,
            "max" : [
                3.86299991607666,
                0,
                0.009000000543892384
            ],
            "min" : [
                0.04500000178813934,
                0,
                -0.6910000443458557
            ],
            "type" : "VEC3"
        },
        {
            "bufferView" : 13,
            "componentType" : 5126,
            "count" : 839,
            "type" : "VEC3"
        },
        {
            "bufferView" : 14,
            "componentType" : 5126,
            "count" : 839,
            "type" : "VEC2"
        },
        {
            "bufferView" : 15,
            "componentType" : 5123,
            "count" : 1806,
            "type" : "SCALAR"
        },
        {
            "bufferView" : 16,
            "componentType" : 5126,
            "count" : 3,
            "max" : [
                0.866025447845459,
                0,
                0.5000000596046448
            ],
            "min" : [
                -0.8660253882408142,
                0,
                -1
            ],
            "type" : "VEC3"
        },
        {
            "bufferView" : 17,
            "componentType" : 5126,
            "count" : 3,
            "type" : "VEC3"
        },
        {
            "bufferView" : 18,
            "componentType" : 5126,
            "count" : 3,
            "type" : "VEC2"
        },
        {
            "bufferView" : 19,
            "componentType" : 5123,
            "count" : 3,
            "type" : "SCALAR"
        },
        {
            "bufferView" : 20,
            "componentType" : 5126,
            "count" : 3,
            "max" : [
                0.866025447845459,
                0,
                0.5000000596046448
            ],
            "min" : [
                -0.8660253882408142,
                0,
                -1
            ],
            "type" : "VEC3"
        },
        {
            "bufferView" : 21,
            "componentType" : 5126,
            "count" : 3,
            "type" : "VEC3"
        },
        {
            "bufferView" : 22,
            "componentType" : 5126,
            "count" : 3,
            "type" : "VEC2"
        },
        {
            "bufferView" : 23,
            "componentType" : 5126,
            "count" : 615,
            "max" : [
                2.957000255584717,
                0,
                0.009000000543892384
            ],
            "min" : [
                0.07600000500679016,
                0,
                -0.6820000410079956
            ],
            "type" : "VEC3"
        },
        {
            "bufferView" : 24,
            "componentType" : 5126,
            "count" : 615,
            "type" : "VEC3"
        },
        {
            "bufferView" : 25,
            "componentType" : 5126,
            "count" : 615,
            "type" : "VEC2"
        },
        {
            "bufferView" : 26,
            "componentType" : 5123,
            "count" : 1359,
            "type" : "SCALAR"
        },
        {
            "bufferView" : 27,
            "componentType" : 5126,
            "count" : 744,
            "max" : [
                3.008000135421753,
                0,
                0.11800000816583633
            ],
            "min" : [
                0.04000000283122063,
                0,
                -0.6910000443458557
            ],
            "type" : "VEC3"
        },
        {
            "bufferView" : 28,
            "componentType" : 5126,
            "count" : 744,
            "type" : "VEC3"
        },
        {
            "bufferView" : 29,
            "componentType" : 5126,
            "count" : 744,
            "type" : "VEC2"
        },
        {
            "bufferView" : 30,
            "componentType" : 5123,
            "count" : 1626,
            "type" : "SCALAR"
        },
        {
            "bufferView" : 31,
            "componentType" : 5126,
            "count" : 834,
            "max" : [
                3.269000291824341,
                0,
                0.11800000816583633
            ],
            "min" : [
                0.0560000017285347,
                0,
                -0.6910000443458557
            ],
            "type" : "VEC3"
        },
        {
            "bufferView" : 32,
            "componentType" : 5126,
            "count" : 834,
            "type" : "VEC3"
        },
        {
            "bufferView" : 33,
            "componentType" : 5126,
            "count" : 834,
            "type" : "VEC2"
        },
        {
            "bufferView" : 34,
            "componentType" : 5123,
            "count" : 1824,
            "type" : "SCALAR"
        }
    ],
    "bufferViews" : [
        {
            "buffer" : 0,
            "byteLength" : 17148,
            "byteOffset" : 0
        },
        {
            "buffer" : 0,
            "byteLength" : 17148,
            "byteOffset" : 17148
        },
        {
            "buffer" : 0,
            "byteLength" : 11432,
            "byteOffset" : 34296
        },
        {
            "buffer" : 0,
            "byteLength" : 6252,
            "byteOffset" : 45728
        },
        {
            "buffer" : 0,
            "byteLength" : 13572,
            "byteOffset" : 51980
        },
        {
            "buffer" : 0,
            "byteLength" : 13572,
            "byteOffset" : 65552
        },
        {
            "buffer" : 0,
            "byteLength" : 9048,
            "byteOffset" : 79124
        },
        {
            "buffer" : 0,
            "byteLength" : 4902,
            "byteOffset" : 88172
        },
        {
            "buffer" : 0,
            "byteLength" : 8340,
            "byteOffset" : 93076
        },
        {
            "buffer" : 0,
            "byteLength" : 8340,
            "byteOffset" : 101416
        },
        {
            "buffer" : 0,
            "byteLength" : 5560,
            "byteOffset" : 109756
        },
        {
            "buffer" : 0,
            "byteLength" : 3096,
            "byteOffset" : 115316
        },
        {
            "buffer" : 0,
            "byteLength" : 10068,
            "byteOffset" : 118412
        },
        {
            "buffer" : 0,
            "byteLength" : 10068,
            "byteOffset" : 128480
        },
        {
            "buffer" : 0,
            "byteLength" : 6712,
            "byteOffset" : 138548
        },
        {
            "buffer" : 0,
            "byteLength" : 3612,
            "byteOffset" : 145260
        },
        {
            "buffer" : 0,
            "byteLength" : 36,
            "byteOffset" : 148872
        },
        {
            "buffer" : 0,
            "byteLength" : 36,
            "byteOffset" : 148908
        },
        {
            "buffer" : 0,
            "byteLength" : 24,
            "byteOffset" : 148944
        },
        {
            "buffer" : 0,
            "byteLength" : 6,
            "byteOffset" : 148968
        },
        {
            "buffer" : 0,
            "byteLength" : 36,
            "byteOffset" : 148976
        },
        {
            "buffer" : 0,
            "byteLength" : 36,
            "byteOffset" : 149012
        },
        {
            "buffer" : 0,
            "byteLength" : 24,
            "byteOffset" : 149048
        },
        {
            "buffer" : 0,
            "byteLength" : 7380,
            "byteOffset" : 149072
        },
        {
            "buffer" : 0,
            "byteLength" : 7380,
            "byteOffset" : 156452
        },
        {
            "buffer" : 0,
            "byteLength" : 4920,
            "byteOffset" : 163832
        },
        {
            "buffer" : 0,
            "byteLength" : 2718,
            "byteOffset" : 168752
        },
        {
            "buffer" : 0,
            "byteLength" : 8928,
            "byteOffset" : 171472
        },
        {
            "buffer" : 0,
            "byteLength" : 8928,
            "byteOffset" : 180400
        },
        {
            "buffer" : 0,
            "byteLength" : 5952,
            "byteOffset" : 189328
        },
        {
            "buffer" : 0,
            "byteLength" : 3252,
            "byteOffset" : 195280
        },
        {
            "buffer" : 0,
            "byteLength" : 10008,
            "byteOffset" : 198532
        },
        {
            "buffer" : 0,
            "byteLength" : 10008,
            "byteOffset" : 208540
        },
        {
            "buffer" : 0,
            "byteLength" : 6672,
            "byteOffset" : 218548
        },
        {
            "buffer" : 0,
            "byteLength" : 3648,
            "byteOffset" : 225220
        }
    ],
    "buffers" : [
        {
            "byteLength" : 228868,
            "uri" : "data:application/octet-stream;base64,"
        }
    ]
}
