<?xml version="1.0" encoding="utf-8"?>
<!-- Generator: Adobe Illustrator 21.1.0, SVG Export Plug-In . SVG Version: 6.00 Build 0)  -->
<svg version="1.1" id="Layer_1" xmlns="http://www.w3.org/2000/svg" xmlns:xlink="http://www.w3.org/1999/xlink" x="0px" y="0px"
	 viewBox="0 0 407 135" style="enable-background:new 0 0 407 135;" xml:space="preserve">
<style type="text/css">
	.st0{fill:#272F35;stroke:#2D2D2D;stroke-miterlimit:10;}
	.st1{fill:#272F35;stroke:#2D2D2D;stroke-width:1.0001;stroke-miterlimit:22.9256;}
</style>
<g>
	<path class="st0" d="M124.8,31.7c0,1-0.4,2.3-1.2,4c-0.8,1.7-2.2,4-4,6.7c-4.3,6.3-8.9,10.9-13.9,14S95.1,61,89.1,61
		c-6.2,0-11.3-1.5-15.2-4.4s-5.9-6.7-5.9-11.2c0-4,1.3-7.8,4-11.4c2.7-3.6,6.5-6.8,11.5-9.6c5.9-3.3,13-5.6,21.2-7.1
		c8.2-1.5,18.9-2.2,32.1-2.2c1,0,3.5,0,7.7,0.1c4.2,0.1,7.8,0.1,10.9,0.1c8.1,0,16.3-0.5,24.4-1.5c1.6-0.2,2.6-0.3,3-0.3
		c0.4,0,0.8,0.1,1.1,0.3c0.3,0.2,0.4,0.5,0.4,0.8c0,1.7-2.3,3.6-7,5.7c-4.7,2.1-9.9,3.2-15.8,3.2c-3.9,0-10.8-0.6-20.8-1.8
		c-10-1.2-18-1.8-24.1-1.8c-13.6,0-24.8,2.4-33.4,7s-13,10.5-13,17.5c0,3.2,1.5,5.9,4.4,8.1c2.9,2.2,6.6,3.3,11.1,3.3
		c5.7,0,11.4-1.5,17-4.5c5.6-3,10.8-7.2,15.6-12.8c1.3-1.5,2.6-3.2,3.9-5.1c1.3-1.9,2.1-2.8,2.4-2.8c0.1,0,0.2,0,0.2,0.2
		C124.8,31,124.8,31.2,124.8,31.7L124.8,31.7z M110.7,70.8c-8,2.6-15.3,7.2-22.1,13.8c-1.7,1.6-2.8,2.5-3.2,2.5
		c-0.1,0-0.2-0.1-0.2-0.2s-0.1-0.2-0.1-0.3c0-0.7,0.6-1.7,1.8-3.1c1.2-1.3,3-3,5.5-5.1c2.7-2.2,5.7-4.2,8.9-5.9
		c3.3-1.7,7-3.3,11.2-4.6c6.7-11.9,13.8-21.9,21.5-29.9c7.6-8.1,13-12.2,16-12.2c0.2,0,0.4,0,0.4,0c0,0,0.1,0.1,0.1,0.3
		c0,0.1-0.4,0.5-1.2,1.2c-8.5,8.2-16.9,21.2-25.1,38.9c7.7-0.9,15.5-3.5,23.4-7.9c1.9-1.1,3-1.6,3.4-1.6c0.3,0,0.6,0.1,0.8,0.2
		s0.3,0.3,0.3,0.5c0,0.2-0.5,0.9-1.6,2.1c-4.9,5.7-9.3,12.3-13.1,19.7c-0.2,0.5-0.5,1.3-1,2.2c-1,2.1-1.9,3.4-2.8,4
		c-1.3,0.9-2.9,1.7-4.8,2.4c-1.8,0.7-3,1.1-3.6,1.1c-0.2,0-0.3-0.1-0.5-0.4s-0.2-0.6-0.2-1c0-1.3,1.7-4.4,5.2-9.3
		c3.5-4.9,7.7-10,12.7-15.1c-3.1,1.4-6.3,2.5-9.5,3.4c-3.2,0.9-6.6,1.5-10.2,1.8c-8.7,15.8-19.2,27.6-31.3,35.4
		c-12.2,7.8-26.1,11.7-42,11.7c-11.8,0-21.1-2.6-27.9-7.8c-6.8-5.2-10.2-12.2-10.2-21.2c0-9.4,3.6-17.3,10.8-23.7
		c7.2-6.4,16.1-9.6,26.8-9.6c8.2,0,14.9,2,20.1,6c5.2,4,7.8,9.1,7.8,15.3c0,6.6-2.9,12.4-8.8,17.4S55.1,99.4,47,99.4
		c-4.5,0-8.5-0.7-12.2-2.1c-3.7-1.4-5.5-2.6-5.5-3.7c0-0.1,0.1-0.3,0.2-0.3s0.3-0.1,0.6-0.1c0.2,0,0.8,0.2,1.8,0.7
		c4.9,2.4,9.8,3.5,14.7,3.5c7.7,0,14.2-2.1,19.5-6.2c5.3-4.2,8-9.1,8-15c0-5.2-2-9.3-5.9-12.5C64.3,60.5,59,59,52.4,59
		c-10.3,0-19.3,2.9-26.9,8.9C18,73.7,14.3,80.6,14.3,88.5c0,7.5,3.2,13.6,9.6,18.3c6.4,4.7,14.8,7,25.3,7c13.4,0,25-3.4,34.8-10.2
		C93.7,96.8,102.6,85.9,110.7,70.8L110.7,70.8z"/>
	<path class="st1" d="M124.8,31.7c0,1-0.4,2.3-1.2,4c-0.8,1.7-2.2,4-4,6.7c-4.3,6.3-8.9,10.9-13.9,14S95.1,61,89.1,61
		c-6.2,0-11.3-1.5-15.2-4.4s-5.9-6.7-5.9-11.2c0-4,1.3-7.8,4-11.4c2.7-3.6,6.5-6.8,11.5-9.6c5.9-3.3,13-5.6,21.2-7.1
		c8.2-1.5,18.9-2.2,32.1-2.2c1,0,3.5,0,7.7,0.1c4.2,0.1,7.8,0.1,10.9,0.1c8.1,0,16.3-0.5,24.4-1.5c1.6-0.2,2.6-0.3,3-0.3
		c0.4,0,0.8,0.1,1.1,0.3c0.3,0.2,0.4,0.5,0.4,0.8c0,1.7-2.3,3.6-7,5.7c-4.7,2.1-9.9,3.2-15.8,3.2c-3.9,0-10.8-0.6-20.8-1.8
		c-10-1.2-18-1.8-24.1-1.8c-13.6,0-24.8,2.4-33.4,7s-13,10.5-13,17.5c0,3.2,1.5,5.9,4.4,8.1c2.9,2.2,6.6,3.3,11.1,3.3
		c5.7,0,11.4-1.5,17-4.5c5.6-3,10.8-7.2,15.6-12.8c1.3-1.5,2.6-3.2,3.9-5.1c1.3-1.9,2.1-2.8,2.4-2.8c0.1,0,0.2,0,0.2,0.2
		C124.8,31,124.8,31.2,124.8,31.7L124.8,31.7z M110.7,70.8c-8,2.6-15.3,7.2-22.1,13.8c-1.7,1.6-2.8,2.5-3.2,2.5
		c-0.1,0-0.2-0.1-0.2-0.2s-0.1-0.2-0.1-0.3c0-0.7,0.6-1.7,1.8-3.1c1.2-1.3,3-3,5.5-5.1c2.7-2.2,5.7-4.2,8.9-5.9
		c3.3-1.7,7-3.3,11.2-4.6c6.7-11.9,13.8-21.9,21.5-29.9c7.6-8.1,13-12.2,16-12.2c0.2,0,0.4,0,0.4,0c0,0,0.1,0.1,0.1,0.3
		c0,0.1-0.4,0.5-1.2,1.2c-8.5,8.2-16.9,21.2-25.1,38.9c7.7-0.9,15.5-3.5,23.4-7.9c1.9-1.1,3-1.6,3.4-1.6c0.3,0,0.6,0.1,0.8,0.2
		s0.3,0.3,0.3,0.5c0,0.2-0.5,0.9-1.6,2.1c-4.9,5.7-9.3,12.3-13.1,19.7c-0.2,0.5-0.5,1.3-1,2.2c-1,2.1-1.9,3.4-2.8,4
		c-1.3,0.9-2.9,1.7-4.8,2.4c-1.8,0.7-3,1.1-3.6,1.1c-0.2,0-0.3-0.1-0.5-0.4s-0.2-0.6-0.2-1c0-1.3,1.7-4.4,5.2-9.3
		c3.5-4.9,7.7-10,12.7-15.1c-3.1,1.4-6.3,2.5-9.5,3.4c-3.2,0.9-6.6,1.5-10.2,1.8c-8.7,15.8-19.2,27.6-31.3,35.4
		c-12.2,7.8-26.1,11.7-42,11.7c-11.8,0-21.1-2.6-27.9-7.8c-6.8-5.2-10.2-12.2-10.2-21.2c0-9.4,3.6-17.3,10.8-23.7
		c7.2-6.4,16.1-9.6,26.8-9.6c8.2,0,14.9,2,20.1,6c5.2,4,7.8,9.1,7.8,15.3c0,6.6-2.9,12.4-8.8,17.4S55.1,99.4,47,99.4
		c-4.5,0-8.5-0.7-12.2-2.1c-3.7-1.4-5.5-2.6-5.5-3.7c0-0.1,0.1-0.3,0.2-0.3s0.3-0.1,0.6-0.1c0.2,0,0.8,0.2,1.8,0.7
		c4.9,2.4,9.8,3.5,14.7,3.5c7.7,0,14.2-2.1,19.5-6.2c5.3-4.2,8-9.1,8-15c0-5.2-2-9.3-5.9-12.5C64.3,60.5,59,59,52.4,59
		c-10.3,0-19.3,2.9-26.9,8.9C18,73.7,14.3,80.6,14.3,88.5c0,7.5,3.2,13.6,9.6,18.3c6.4,4.7,14.8,7,25.3,7c13.4,0,25-3.4,34.8-10.2
		C93.7,96.8,102.6,85.9,110.7,70.8L110.7,70.8z"/>
	<path class="st1" d="M170.6,92c2.2-2,3.2-3.3,3.6-3.3c0.3,0,0.6,0.1,0.7,0.2c0.2,0.1,0.3,0.3,0.3,0.6c0,0.7-1.3,2.4-3.7,5.3
		C159.5,109,167.4,94.9,170.6,92L170.6,92z M200.6,78.4c-2.2,0.1-4.7,1.1-7.6,3c-2.9,1.9-6.3,4.7-10.1,8.6c-4.6,4.5-8,8.4-10.4,11.8
		c-2.4,3.4-3.5,6.1-3.4,8c0.1,1.3,0.5,2.3,1.4,3c0.9,0.7,2.1,1,3.7,0.9c2.3-0.1,5.2-1.3,8.7-3.5c3.5-2.3,7-5.3,10.5-9.1
		c3.6-3.8,6.4-7.4,8.4-10.8c2-3.4,3-6.1,2.9-8c-0.1-1.3-0.5-2.2-1.2-2.9C202.8,78.7,201.8,78.4,200.6,78.4L200.6,78.4z M200.4,97.2
		c-5.2,6.2-10.1,10.9-14.7,14.1c-4.6,3.2-8.8,4.9-12.8,5c-2.7,0.1-4.9-0.6-6.6-2.1c-1.7-1.5-2.6-3.7-2.7-6.4
		c-0.2-3.3,0.9-6.9,3.2-10.7c2.3-3.8,5.6-7.5,10-11.1c3.6-3,7.4-5.5,11.4-7.2c4-1.8,7.6-2.7,10.9-2.8c2.4-0.1,4.4,0.4,5.9,1.6
		c1.5,1.1,2.3,2.8,2.4,4.8c0.1,2.9-1.2,6.5-4,10.7c-0.7,0.9-0.9,1.5-0.9,1.6c0,0.5,0.4,1,1.2,1.4c0.8,0.4,1.7,0.5,2.7,0.5
		c3.1-0.1,6.4-1.7,9.7-4.8c3.3-3.1,5.1-4.6,5.5-4.6c0.2,0,0.3,0,0.4,0.1c0.1,0.1,0.1,0.2,0.1,0.4c0.1,1.5-1.8,3.7-5.5,6.6
		c-3.7,2.9-7.3,4.4-10.6,4.5c-1.2,0-2.2-0.1-3.1-0.3C202,98.2,201.2,97.7,200.4,97.2L200.4,97.2z M237.1,77.9
		c5.1,3.2,5.1,6.8,1.6,10.4c-4.8,5.1-8.6,9.5-11.3,13.2c-2.6,3.7-3.9,6.3-3.9,7.9c0,0.5,0.3,0.9,0.8,1.2c0.5,0.3,1.1,0.5,1.9,0.4
		c1.7-0.1,4.2-1.2,7.7-3.5c3.5-2.3,7.4-5.4,11.8-9.4c2.7-2.6,5.5-5.3,8.4-8.3c2.8-3,4.5-4.5,4.9-4.5c0.3,0,0.5,0,0.6,0.1
		c0.1,0.1,0.2,0.3,0.2,0.7c0,0.7-1.2,2.5-3.7,5.2c-2.5,2.7-5.8,6-10.1,9.7c-4.7,4.2-8.9,7.4-12.6,9.7c-3.6,2.2-6.7,3.4-9.2,3.5
		c-2.4,0.1-4.2-0.4-5.4-1.4c-1.2-1-1.9-2.6-2-4.7c-0.1-2.5,0.7-5.4,2.6-8.6c1.9-3.2,4.4-6.3,7.8-9.5c2.1-1.9,4.4-3.8,7-5.7
		c2.6-1.9,2.8-2.8,2.8-3.1c0-0.3,0.3-1.6-0.5-2.1c-0.5-0.3-1.7-0.4-2.9-0.3c-3.4,0.1-5.9,3.4-9,6.9c-3.1,3.6-5.1,5.3-5.8,5.4
		c-0.2,0-0.4-0.1-0.5-0.2c-0.1-0.1-0.1-0.4-0.1-0.7c0-0.6,1.3-2.3,4.1-5.1c2.7-2.7,4.7-5.1,5.8-7.1c0.4-0.7,0.7-1.3,1.3-3.1
		c1.5-4.2,3.1-4,3.9-4c0.8,0,1.5,0.3,2,0.8c0.6,0.6,0.9,1.4,0.9,2.3c0.1,1.9-1.6,1.4-1.6,2.5c0,0.3,0.2,0.5,0.7,0.7
		C235.8,77.4,236.6,77.6,237.1,77.9L237.1,77.9z M258.3,110.7c1.9-0.1,4.4-1.1,7.5-3.2c3.1-2,6.3-4.7,9.6-8.2
		c5.4-5.6,9.6-10.3,12.5-14c2.9-3.7,4.3-6.2,4.2-7.5c0-1-0.4-1.8-1.2-2.3c-0.8-0.5-1.9-0.7-3.3-0.7c-2.6,0.1-5.6,1.1-9,3.1
		c-3.4,1.9-6.9,4.7-10.6,8.2c-4.5,4.4-8,8.5-10.3,12.2c-2.4,3.7-3.5,6.7-3.4,9c0.1,1.1,0.4,2,1.1,2.6
		C256.1,110.5,257,110.7,258.3,110.7L258.3,110.7z M277.8,100.3c-4.2,4.2-8,7.3-11.4,9.4c-3.4,2.1-6.5,3.2-9.4,3.3
		c-2.8,0.1-5-0.6-6.6-2.1c-1.7-1.5-2.5-3.6-2.7-6.2c-0.2-3.1,0.9-6.6,3.3-10.6c2.4-3.9,5.6-7.6,9.8-11c4-3.2,8.3-5.7,12.9-7.6
		c4.6-1.8,9-2.9,13.4-3c2.1-0.1,3.9,0.3,5.2,1.1c1.3,0.8,2,1.9,2.2,3.3c1.6-2.1,2.9-3.4,3.7-3.9c0.8-0.4,2.2-0.7,4.1-0.8
		c1,0,1.8,0.1,2.4,0.2c0.6,0.2,0.9,0.5,0.9,0.9c0,0.3-0.1,0.7-0.4,1.4c-0.3,0.7-0.7,1.3-1.2,1.8l-18.7,23.4c-1.1,1.5-2,2.8-2.6,4
		c-0.6,1.2-0.9,2.3-0.9,3.1c0,0.7,0.3,1.2,0.7,1.5c0.4,0.3,1.1,0.4,2.2,0.4c2-0.1,4.9-1.4,8.6-3.9c10.7-7.4,41.5-32.6,11.3-6
		c-5.2,4.6-9.6,7.9-13.1,9.9c-3.6,2-6.7,3.1-9.5,3.2c-2,0.1-3.5-0.3-4.6-1c-1.1-0.8-1.7-1.9-1.8-3.4c-0.1-1.3,0.1-2.6,0.5-3.8
		C276.4,102.7,277,101.5,277.8,100.3L277.8,100.3z"/>
	<path class="st0" d="M157.2,75.8c-5.3,7.9-9.5,14.9-12.6,20.8c-3.1,5.9-4.6,9.8-4.5,11.6c0.1,0.8,0.3,1.4,0.9,1.8
		c0.5,0.4,1.3,0.5,2.3,0.4c2.1-0.2,6.3-1.6,9.8-4.4c3.5-2.8,11.5-7.1,16.2-11.2c1.7-1.5,2.9-3.5,4.4-5.6c1.5-2.1,2.4-3.1,2.8-3.1
		c0.3,0,0.5,0,0.6,0.1c0.1,0.1-0.1,0.4-0.1,0.6c0.1,0.7-0.5,2.2-2.4,4.8c-1.9,2.6-4.4,4-7.6,7.5c-4.3,4.6-12.2,8.6-15.1,10.6
		c-2.9,2-7,3-9.5,3.2c-2.1,0.2-3.8-0.2-5-1.2c-1.2-0.9-1.9-2.4-2-4.3c-0.3-3.9,1.5-9.5,5.5-16.9c3.9-7.4,10.2-16.8,18.7-28.4
		c7.4-9.9,14.4-18,21-24.2c6.6-6.2,11.6-9.4,14.9-9.6c1.1-0.1,2,0.2,2.7,0.8c0.7,0.7,1.1,1.6,1.2,2.8c0.4,5.2-3.3,12.1-11.2,20.5
		C180.2,60.9,169.9,68.6,157.2,75.8L157.2,75.8z M158.6,72.6c11.2-6.5,20.5-13.8,27.9-21.8c7.4-8.1,10.9-14.1,10.6-17.9
		c-0.1-0.8-0.3-1.4-0.7-1.8c-0.4-0.4-1.1-0.5-2-0.4c-3,0.2-7.7,4.1-14.2,11.7C173.7,49.9,166.5,60,158.6,72.6L158.6,72.6z"/>
	<path class="st0" d="M330.2,76.5c-5.2,8-9.4,14.9-12.5,20.9c-3.1,5.9-4.5,9.8-4.4,11.6c0.1,0.8,0.4,1.4,0.9,1.8
		c0.5,0.4,1.3,0.5,2.3,0.4c2.1-0.2,4.9-1.7,8.4-4.5c3.4-2.8,7.4-6.9,11.8-12.1c1.4-1.7,2.9-3.5,4.4-5.6c1.5-2.1,2.4-3.1,2.7-3.1
		c0.3,0,0.5,0,0.6,0.1c0.2,0.1,0.2,0.3,0.2,0.6c0.1,0.7-0.9,2.3-2.8,4.9c-1.9,2.6-4.4,5.7-7.6,9.2c-4.2,4.6-7.8,7.9-10.6,9.9
		c-2.8,2-5.5,3.1-8,3.3c-2.1,0.2-3.8-0.2-5-1.1c-1.2-0.9-1.9-2.4-2.1-4.3c-0.3-3.9,1.4-9.5,5.3-16.9c3.9-7.4,10.1-16.9,18.5-28.5
		c7.3-10,14.3-18.1,20.9-24.3c6.6-6.2,11.5-9.5,14.8-9.8c1.1-0.1,2,0.2,2.7,0.8c0.7,0.6,1.1,1.6,1.2,2.8c0.5,5.2-3.2,12.1-11,20.5
		C353.1,61.5,342.9,69.3,330.2,76.5L330.2,76.5z M331.6,73.3c11.2-6.6,20.4-13.9,27.8-22c7.3-8.1,10.8-14.1,10.5-18
		c-0.1-0.8-0.3-1.4-0.8-1.8c-0.4-0.4-1.1-0.5-2-0.4c-3,0.3-7.7,4.2-14.1,11.8C346.5,50.5,339.4,60.7,331.6,73.3L331.6,73.3z"/>
	<path class="st1" d="M330.2,76.5c-5.2,8-9.4,14.9-12.5,20.9c-3.1,5.9-4.5,9.8-4.4,11.6c0.1,0.8,0.4,1.4,0.9,1.8
		c0.5,0.4,1.3,0.5,2.3,0.4c2.1-0.2,4.9-1.7,8.4-4.5c3.4-2.8,7.4-6.9,11.8-12.1c1.4-1.7,2.9-3.5,4.4-5.6c1.5-2.1,2.4-3.1,2.7-3.1
		c0.3,0,0.5,0,0.6,0.1c0.2,0.1,0.2,0.3,0.2,0.6c0.1,0.7-0.9,2.3-2.8,4.9c-1.9,2.6-4.4,5.7-7.6,9.2c-4.2,4.6-7.8,7.9-10.6,9.9
		c-2.8,2-5.5,3.1-8,3.3c-2.1,0.2-3.8-0.2-5-1.1c-1.2-0.9-1.9-2.4-2.1-4.3c-0.3-3.9,1.4-9.5,5.3-16.9c3.9-7.4,10.1-16.9,18.5-28.5
		c7.3-10,14.3-18.1,20.9-24.3c6.6-6.2,11.5-9.5,14.8-9.8c1.1-0.1,2,0.2,2.7,0.8c0.7,0.6,1.1,1.6,1.2,2.8c0.5,5.2-3.2,12.1-11,20.5
		C353.1,61.5,342.9,69.3,330.2,76.5L330.2,76.5z M331.6,73.3c11.2-6.6,20.4-13.9,27.8-22c7.3-8.1,10.8-14.1,10.5-18
		c-0.1-0.8-0.3-1.4-0.8-1.8c-0.4-0.4-1.1-0.5-2-0.4c-3,0.3-7.7,4.2-14.1,11.8C346.5,50.5,339.4,60.7,331.6,73.3L331.6,73.3z"/>
	<path class="st1" d="M150.6,78.4c1.3-1,2.7-2.1,4.1-3.3c1.4-1.2,2.3-1.8,2.5-1.8c0.2,0,0.3,0.1,0.4,0.2c0.1,0.1,0.1,0.2,0.1,0.4
		c-0.1,0.5-1,1.5-2.8,3.1c-1.8,1.6-4.2,3.3-7.1,5.3C134.2,91.5,133.3,91.2,150.6,78.4L150.6,78.4z"/>
	<path class="st0" d="M387.5,27.4c1.5,0,3,0.4,4.5,1.2c1.5,0.8,2.6,2,3.4,3.4c0.8,1.5,1.2,3,1.2,4.6c0,1.6-0.4,3.1-1.3,4.5
		c-0.8,1.4-2,2.6-3.4,3.3c-1.5,0.8-3,1.2-4.6,1.1s-3.1-0.4-4.5-1.3s-2.6-2-3.3-3.4c-0.8-1.5-1.2-3-1.1-4.6c0-1.6,0.5-3.1,1.3-4.6
		c0.8-1.5,2-2.6,3.5-3.3C384.4,27.7,385.9,27.3,387.5,27.4L387.5,27.4z M387.4,28.9c-1.3,0-2.5,0.3-3.8,0.9
		c-1.2,0.6-2.2,1.6-2.9,2.8c-0.7,1.2-1.1,2.5-1.1,3.8c0,1.3,0.3,2.6,1,3.8c0.7,1.2,1.6,2.2,2.8,2.9c1.2,0.7,2.5,1,3.8,1.1
		s2.6-0.3,3.8-1c1.2-0.7,2.2-1.6,2.9-2.8c0.7-1.2,1-2.5,1.1-3.8c0-1.3-0.3-2.6-1-3.8c-0.7-1.2-1.6-2.2-2.8-2.9
		C390,29.2,388.7,28.9,387.4,28.9L387.4,28.9z M383.2,41.5l0.1-9.9l3.4,0c1.2,0,2,0.1,2.5,0.3c0.5,0.2,0.9,0.5,1.2,1
		c0.3,0.5,0.4,0.9,0.4,1.5c0,0.7-0.3,1.3-0.8,1.9c-0.5,0.5-1.2,0.8-2.1,0.9c0.3,0.2,0.6,0.3,0.8,0.5c0.4,0.4,0.9,1.1,1.4,2l1.2,1.9
		l-1.9,0l-0.9-1.6c-0.7-1.2-1.2-2-1.6-2.3c-0.3-0.2-0.7-0.3-1.3-0.4l-0.9,0l-0.1,4.2L383.2,41.5L383.2,41.5z M384.9,36l1.9,0
		c0.9,0,1.5-0.1,1.9-0.4c0.3-0.3,0.5-0.6,0.5-1.1c0-0.3-0.1-0.6-0.2-0.8c-0.2-0.2-0.4-0.4-0.7-0.5c-0.3-0.1-0.8-0.2-1.6-0.2l-1.8,0
		L384.9,36L384.9,36z"/>
</g>
</svg>
